<?xml version="1.0" encoding="UTF-8" standalone="no"?>
<!DOCTYPE svg PUBLIC "-//W3C//DTD SVG 1.1//EN"
 "http://www.w3.org/Graphics/SVG/1.1/DTD/svg11.dtd">
<!-- Generated by graphviz version 2.38.0 (20140413.2041)
 -->
<!-- Title: %3 Pages: 1 -->
<svg width="2293pt" height="305pt"
 viewBox="0.00 0.00 2292.54 305.00" xmlns="http://www.w3.org/2000/svg" xmlns:xlink="http://www.w3.org/1999/xlink">
<g id="graph0" class="graph" transform="scale(1 1) rotate(0) translate(4 301)">
<title>%3</title>
<polygon fill="white" stroke="none" points="-4,4 -4,-301 2288.54,-301 2288.54,4 -4,4"/>
<!-- Month -->
<g id="node1" class="node"><title>Month</title>
<ellipse fill="none" stroke="black" cx="34.4469" cy="-279" rx="34.394" ry="18"/>
<text text-anchor="middle" x="34.4469" y="-275.3" font-family="Times New Roman,serif" font-size="14.00">Month</text>
</g>
<!-- Age -->
<g id="node2" class="node"><title>Age</title>
<ellipse fill="none" stroke="black" cx="107.447" cy="-105" rx="27" ry="18"/>
<text text-anchor="middle" x="107.447" y="-101.3" font-family="Times New Roman,serif" font-size="14.00">Age</text>
</g>
<!-- Occupation -->
<g id="node3" class="node"><title>Occupation</title>
<ellipse fill="none" stroke="black" cx="324.447" cy="-279" rx="53.0913" ry="18"/>
<text text-anchor="middle" x="324.447" y="-275.3" font-family="Times New Roman,serif" font-size="14.00">Occupation</text>
</g>
<!-- Annual_Income -->
<g id="node4" class="node"><title>Annual_Income</title>
<ellipse fill="none" stroke="black" cx="464.447" cy="-279" rx="68.4888" ry="18"/>
<text text-anchor="middle" x="464.447" y="-275.3" font-family="Times New Roman,serif" font-size="14.00">Annual_Income</text>
</g>
<!-- Monthly_Inhand_Salary -->
<g id="node5" class="node"><title>Monthly_Inhand_Salary</title>
<ellipse fill="none" stroke="black" cx="648.447" cy="-279" rx="98.2828" ry="18"/>
<text text-anchor="middle" x="648.447" y="-275.3" font-family="Times New Roman,serif" font-size="14.00">Monthly_Inhand_Salary</text>
</g>
<!-- Num_Bank_Accounts -->
<g id="node6" class="node"><title>Num_Bank_Accounts</title>
<ellipse fill="none" stroke="black" cx="320.447" cy="-18" rx="91.784" ry="18"/>
<text text-anchor="middle" x="320.447" y="-14.3" font-family="Times New Roman,serif" font-size="14.00">Num_Bank_Accounts</text>
</g>
<!-- Num_Credit_Card -->
<g id="node7" class="node"><title>Num_Credit_Card</title>
<ellipse fill="none" stroke="black" cx="508.447" cy="-18" rx="78.7863" ry="18"/>
<text text-anchor="middle" x="508.447" y="-14.3" font-family="Times New Roman,serif" font-size="14.00">Num_Credit_Card</text>
</g>
<!-- Interest_Rate -->
<g id="node8" class="node"><title>Interest_Rate</title>
<ellipse fill="none" stroke="black" cx="664.447" cy="-18" rx="59.2899" ry="18"/>
<text text-anchor="middle" x="664.447" y="-14.3" font-family="Times New Roman,serif" font-size="14.00">Interest_Rate</text>
</g>
<!-- Num_of_Loan -->
<g id="node9" class="node"><title>Num_of_Loan</title>
<ellipse fill="none" stroke="black" cx="146.447" cy="-18" rx="64.189" ry="18"/>
<text text-anchor="middle" x="146.447" y="-14.3" font-family="Times New Roman,serif" font-size="14.00">Num_of_Loan</text>
</g>
<!-- Type_of_Loan -->
<g id="node10" class="node"><title>Type_of_Loan</title>
<ellipse fill="none" stroke="black" cx="830.447" cy="-279" rx="65.7887" ry="18"/>
<text text-anchor="middle" x="830.447" y="-275.3" font-family="Times New Roman,serif" font-size="14.00">Type_of_Loan</text>
</g>
<!-- Delay_from_due_date -->
<g id="node11" class="node"><title>Delay_from_due_date</title>
<ellipse fill="none" stroke="black" cx="833.447" cy="-18" rx="91.784" ry="18"/>
<text text-anchor="middle" x="833.447" y="-14.3" font-family="Times New Roman,serif" font-size="14.00">Delay_from_due_date</text>
</g>
<!-- Num_of_Delayed_Payment -->
<g id="node12" class="node"><title>Num_of_Delayed_Payment</title>
<ellipse fill="none" stroke="black" cx="1054.45" cy="-18" rx="111.28" ry="18"/>
<text text-anchor="middle" x="1054.45" y="-14.3" font-family="Times New Roman,serif" font-size="14.00">Num_of_Delayed_Payment</text>
</g>
<!-- Changed_Credit_Limit -->
<g id="node13" class="node"><title>Changed_Credit_Limit</title>
<ellipse fill="none" stroke="black" cx="1007.45" cy="-279" rx="93.6835" ry="18"/>
<text text-anchor="middle" x="1007.45" y="-275.3" font-family="Times New Roman,serif" font-size="14.00">Changed_Credit_Limit</text>
</g>
<!-- Num_Credit_Inquiries -->
<g id="node14" class="node"><title>Num_Credit_Inquiries</title>
<ellipse fill="none" stroke="black" cx="1275.45" cy="-18" rx="91.784" ry="18"/>
<text text-anchor="middle" x="1275.45" y="-14.3" font-family="Times New Roman,serif" font-size="14.00">Num_Credit_Inquiries</text>
</g>
<!-- Credit_Mix -->
<g id="node15" class="node"><title>Credit_Mix</title>
<ellipse fill="none" stroke="black" cx="586.447" cy="-105" rx="51.9908" ry="18"/>
<text text-anchor="middle" x="586.447" y="-101.3" font-family="Times New Roman,serif" font-size="14.00">Credit_Mix</text>
</g>
<!-- Credit_Mix&#45;&gt;Num_Bank_Accounts -->
<g id="edge2" class="edge"><title>Credit_Mix&#45;&gt;Num_Bank_Accounts</title>
<path fill="none" stroke="black" d="M549.461,-92.1811C504.534,-77.8248 428.31,-53.4674 376.238,-36.8281"/>
<polygon fill="black" stroke="black" points="377.077,-33.4219 366.486,-33.7119 374.947,-40.0897 377.077,-33.4219"/>
<text text-anchor="middle" x="480.947" y="-57.8" font-family="Times New Roman,serif" font-size="14.00">1.00</text>
</g>
<!-- Credit_Mix&#45;&gt;Num_Credit_Card -->
<g id="edge3" class="edge"><title>Credit_Mix&#45;&gt;Num_Credit_Card</title>
<path fill="none" stroke="black" d="M571.408,-87.6111C559.903,-75.0742 543.857,-57.588 530.844,-43.4065"/>
<polygon fill="black" stroke="black" points="533.314,-40.9219 523.974,-35.9203 528.156,-45.6547 533.314,-40.9219"/>
<text text-anchor="middle" x="563.947" y="-57.8" font-family="Times New Roman,serif" font-size="14.00">1.00</text>
</g>
<!-- Credit_Mix&#45;&gt;Interest_Rate -->
<g id="edge4" class="edge"><title>Credit_Mix&#45;&gt;Interest_Rate</title>
<path fill="none" stroke="black" d="M601.486,-87.6111C613.065,-74.9928 629.245,-57.3607 642.304,-43.1307"/>
<polygon fill="black" stroke="black" points="645.005,-45.363 649.188,-35.6286 639.848,-40.6301 645.005,-45.363"/>
<text text-anchor="middle" x="641.947" y="-57.8" font-family="Times New Roman,serif" font-size="14.00">1.00</text>
</g>
<!-- Credit_Mix&#45;&gt;Num_of_Loan -->
<g id="edge5" class="edge"><title>Credit_Mix&#45;&gt;Num_of_Loan</title>
<path fill="none" stroke="black" d="M540.83,-96.2369C471.305,-84.2494 334.73,-60.0905 219.447,-36 214.193,-34.902 208.736,-33.7165 203.279,-32.5002"/>
<polygon fill="black" stroke="black" points="204.026,-29.0806 193.5,-30.2897 202.482,-35.9084 204.026,-29.0806"/>
<text text-anchor="middle" x="391.947" y="-57.8" font-family="Times New Roman,serif" font-size="14.00">1.00</text>
</g>
<!-- Credit_Mix&#45;&gt;Delay_from_due_date -->
<g id="edge7" class="edge"><title>Credit_Mix&#45;&gt;Delay_from_due_date</title>
<path fill="none" stroke="black" d="M622.099,-91.731C663.595,-77.4512 732.524,-53.7307 780.33,-37.279"/>
<polygon fill="black" stroke="black" points="781.578,-40.5513 789.895,-33.9877 779.3,-33.9322 781.578,-40.5513"/>
<text text-anchor="middle" x="736.947" y="-57.8" font-family="Times New Roman,serif" font-size="14.00">1.00</text>
</g>
<!-- Credit_Mix&#45;&gt;Num_of_Delayed_Payment -->
<g id="edge8" class="edge"><title>Credit_Mix&#45;&gt;Num_of_Delayed_Payment</title>
<path fill="none" stroke="black" d="M631.321,-95.8498C710.063,-81.5484 874.146,-51.747 973.25,-33.7473"/>
<polygon fill="black" stroke="black" points="974.011,-37.1664 983.225,-31.9357 972.76,-30.2791 974.011,-37.1664"/>
<text text-anchor="middle" x="860.947" y="-57.8" font-family="Times New Roman,serif" font-size="14.00">1.00</text>
</g>
<!-- Credit_Mix&#45;&gt;Num_Credit_Inquiries -->
<g id="edge9" class="edge"><title>Credit_Mix&#45;&gt;Num_Credit_Inquiries</title>
<path fill="none" stroke="black" d="M635.729,-99.169C736.903,-89.0601 975.282,-64.2586 1174.45,-36 1182.67,-34.833 1191.26,-33.5258 1199.8,-32.1684"/>
<polygon fill="black" stroke="black" points="1200.47,-35.6058 1209.78,-30.5572 1199.35,-28.6952 1200.47,-35.6058"/>
<text text-anchor="middle" x="1041.95" y="-57.8" font-family="Times New Roman,serif" font-size="14.00">1.00</text>
</g>
<!-- Outstanding_Debt -->
<g id="node16" class="node"><title>Outstanding_Debt</title>
<ellipse fill="none" stroke="black" cx="1196.45" cy="-279" rx="77.1866" ry="18"/>
<text text-anchor="middle" x="1196.45" y="-275.3" font-family="Times New Roman,serif" font-size="14.00">Outstanding_Debt</text>
</g>
<!-- Credit_Utilization_Ratio -->
<g id="node17" class="node"><title>Credit_Utilization_Ratio</title>
<ellipse fill="none" stroke="black" cx="1390.45" cy="-279" rx="98.5829" ry="18"/>
<text text-anchor="middle" x="1390.45" y="-275.3" font-family="Times New Roman,serif" font-size="14.00">Credit_Utilization_Ratio</text>
</g>
<!-- Credit_History_Age -->
<g id="node18" class="node"><title>Credit_History_Age</title>
<ellipse fill="none" stroke="black" cx="1591.45" cy="-279" rx="84.485" ry="18"/>
<text text-anchor="middle" x="1591.45" y="-275.3" font-family="Times New Roman,serif" font-size="14.00">Credit_History_Age</text>
</g>
<!-- Payment_of_Min_Amount -->
<g id="node19" class="node"><title>Payment_of_Min_Amount</title>
<ellipse fill="none" stroke="black" cx="170.447" cy="-192" rx="107.781" ry="18"/>
<text text-anchor="middle" x="170.447" y="-188.3" font-family="Times New Roman,serif" font-size="14.00">Payment_of_Min_Amount</text>
</g>
<!-- Payment_of_Min_Amount&#45;&gt;Age -->
<g id="edge1" class="edge"><title>Payment_of_Min_Amount&#45;&gt;Age</title>
<path fill="none" stroke="black" d="M148.715,-174.199C142.638,-168.821 136.359,-162.55 131.447,-156 126.026,-148.771 121.354,-140.123 117.611,-132.068"/>
<polygon fill="black" stroke="black" points="120.72,-130.441 113.517,-122.671 114.302,-133.237 120.72,-130.441"/>
<text text-anchor="middle" x="143.947" y="-144.8" font-family="Times New Roman,serif" font-size="14.00">1.00</text>
</g>
<!-- Payment_of_Min_Amount&#45;&gt;Num_of_Loan -->
<g id="edge6" class="edge"><title>Payment_of_Min_Amount&#45;&gt;Num_of_Loan</title>
<path fill="none" stroke="black" d="M168.058,-173.879C163.889,-144.001 155.253,-82.1129 150.253,-46.2736"/>
<polygon fill="black" stroke="black" points="153.675,-45.4719 148.826,-36.0516 146.742,-46.4394 153.675,-45.4719"/>
<text text-anchor="middle" x="172.947" y="-101.3" font-family="Times New Roman,serif" font-size="14.00">1.00</text>
</g>
<!-- Payment_of_Min_Amount&#45;&gt;Credit_Mix -->
<g id="edge10" class="edge"><title>Payment_of_Min_Amount&#45;&gt;Credit_Mix</title>
<path fill="none" stroke="black" d="M235.905,-177.625C317.912,-160.869 456.88,-132.474 532.877,-116.946"/>
<polygon fill="black" stroke="black" points="533.624,-120.365 542.721,-114.934 532.223,-113.507 533.624,-120.365"/>
<text text-anchor="middle" x="414.947" y="-144.8" font-family="Times New Roman,serif" font-size="14.00">1.00</text>
</g>
<!-- Total_EMI_per_month -->
<g id="node20" class="node"><title>Total_EMI_per_month</title>
<ellipse fill="none" stroke="black" cx="1788.45" cy="-279" rx="94.7833" ry="18"/>
<text text-anchor="middle" x="1788.45" y="-275.3" font-family="Times New Roman,serif" font-size="14.00">Total_EMI_per_month</text>
</g>
<!-- Amount_invested_monthly -->
<g id="node21" class="node"><title>Amount_invested_monthly</title>
<ellipse fill="none" stroke="black" cx="2009.45" cy="-279" rx="108.581" ry="18"/>
<text text-anchor="middle" x="2009.45" y="-275.3" font-family="Times New Roman,serif" font-size="14.00">Amount_invested_monthly</text>
</g>
<!-- Payment_Behaviour -->
<g id="node22" class="node"><title>Payment_Behaviour</title>
<ellipse fill="none" stroke="black" cx="170.447" cy="-279" rx="83.3857" ry="18"/>
<text text-anchor="middle" x="170.447" y="-275.3" font-family="Times New Roman,serif" font-size="14.00">Payment_Behaviour</text>
</g>
<!-- Payment_Behaviour&#45;&gt;Payment_of_Min_Amount -->
<g id="edge11" class="edge"><title>Payment_Behaviour&#45;&gt;Payment_of_Min_Amount</title>
<path fill="none" stroke="black" d="M170.447,-260.799C170.447,-249.163 170.447,-233.548 170.447,-220.237"/>
<polygon fill="black" stroke="black" points="173.947,-220.175 170.447,-210.175 166.947,-220.175 173.947,-220.175"/>
<text text-anchor="middle" x="182.947" y="-231.8" font-family="Times New Roman,serif" font-size="14.00">1.00</text>
</g>
<!-- Monthly_Balance -->
<g id="node23" class="node"><title>Monthly_Balance</title>
<ellipse fill="none" stroke="black" cx="2210.45" cy="-279" rx="74.187" ry="18"/>
<text text-anchor="middle" x="2210.45" y="-275.3" font-family="Times New Roman,serif" font-size="14.00">Monthly_Balance</text>
</g>
</g>
</svg>
