<?xml version="1.0" encoding="UTF-8" standalone="no"?>
<!DOCTYPE svg PUBLIC "-//W3C//DTD SVG 1.1//EN"
 "http://www.w3.org/Graphics/SVG/1.1/DTD/svg11.dtd">
<!-- Generated by graphviz version 2.38.0 (20140413.2041)
 -->
<!-- Title: %3 Pages: 1 -->
<svg width="2485pt" height="305pt"
 viewBox="0.00 0.00 2485.09 305.00" xmlns="http://www.w3.org/2000/svg" xmlns:xlink="http://www.w3.org/1999/xlink">
<g id="graph0" class="graph" transform="scale(1 1) rotate(0) translate(4 301)">
<title>%3</title>
<polygon fill="white" stroke="none" points="-4,4 -4,-301 2481.09,-301 2481.09,4 -4,4"/>
<!-- Month -->
<g id="node1" class="node"><title>Month</title>
<ellipse fill="none" stroke="black" cx="506" cy="-279" rx="34.394" ry="18"/>
<text text-anchor="middle" x="506" y="-275.3" font-family="Times New Roman,serif" font-size="14.00">Month</text>
</g>
<!-- Age -->
<g id="node2" class="node"><title>Age</title>
<ellipse fill="none" stroke="black" cx="27" cy="-105" rx="27" ry="18"/>
<text text-anchor="middle" x="27" y="-101.3" font-family="Times New Roman,serif" font-size="14.00">Age</text>
</g>
<!-- Occupation -->
<g id="node3" class="node"><title>Occupation</title>
<ellipse fill="none" stroke="black" cx="852" cy="-279" rx="53.0913" ry="18"/>
<text text-anchor="middle" x="852" y="-275.3" font-family="Times New Roman,serif" font-size="14.00">Occupation</text>
</g>
<!-- Annual_Income -->
<g id="node4" class="node"><title>Annual_Income</title>
<ellipse fill="none" stroke="black" cx="992" cy="-279" rx="68.4888" ry="18"/>
<text text-anchor="middle" x="992" y="-275.3" font-family="Times New Roman,serif" font-size="14.00">Annual_Income</text>
</g>
<!-- Monthly_Inhand_Salary -->
<g id="node5" class="node"><title>Monthly_Inhand_Salary</title>
<ellipse fill="none" stroke="black" cx="1176" cy="-279" rx="98.2828" ry="18"/>
<text text-anchor="middle" x="1176" y="-275.3" font-family="Times New Roman,serif" font-size="14.00">Monthly_Inhand_Salary</text>
</g>
<!-- Num_Bank_Accounts -->
<g id="node6" class="node"><title>Num_Bank_Accounts</title>
<ellipse fill="none" stroke="black" cx="164" cy="-105" rx="91.784" ry="18"/>
<text text-anchor="middle" x="164" y="-101.3" font-family="Times New Roman,serif" font-size="14.00">Num_Bank_Accounts</text>
</g>
<!-- Num_Credit_Card -->
<g id="node7" class="node"><title>Num_Credit_Card</title>
<ellipse fill="none" stroke="black" cx="352" cy="-105" rx="78.7863" ry="18"/>
<text text-anchor="middle" x="352" y="-101.3" font-family="Times New Roman,serif" font-size="14.00">Num_Credit_Card</text>
</g>
<!-- Interest_Rate -->
<g id="node8" class="node"><title>Interest_Rate</title>
<ellipse fill="none" stroke="black" cx="508" cy="-105" rx="59.2899" ry="18"/>
<text text-anchor="middle" x="508" y="-101.3" font-family="Times New Roman,serif" font-size="14.00">Interest_Rate</text>
</g>
<!-- Num_of_Loan -->
<g id="node9" class="node"><title>Num_of_Loan</title>
<ellipse fill="none" stroke="black" cx="736" cy="-18" rx="64.189" ry="18"/>
<text text-anchor="middle" x="736" y="-14.3" font-family="Times New Roman,serif" font-size="14.00">Num_of_Loan</text>
</g>
<!-- Delay_from_due_date -->
<g id="node10" class="node"><title>Delay_from_due_date</title>
<ellipse fill="none" stroke="black" cx="738" cy="-105" rx="91.784" ry="18"/>
<text text-anchor="middle" x="738" y="-101.3" font-family="Times New Roman,serif" font-size="14.00">Delay_from_due_date</text>
</g>
<!-- Num_of_Delayed_Payment -->
<g id="node11" class="node"><title>Num_of_Delayed_Payment</title>
<ellipse fill="none" stroke="black" cx="670" cy="-279" rx="111.28" ry="18"/>
<text text-anchor="middle" x="670" y="-275.3" font-family="Times New Roman,serif" font-size="14.00">Num_of_Delayed_Payment</text>
</g>
<!-- Credit_Mix -->
<g id="node14" class="node"><title>Credit_Mix</title>
<ellipse fill="none" stroke="black" cx="670" cy="-192" rx="51.9908" ry="18"/>
<text text-anchor="middle" x="670" y="-188.3" font-family="Times New Roman,serif" font-size="14.00">Credit_Mix</text>
</g>
<!-- Num_of_Delayed_Payment&#45;&gt;Credit_Mix -->
<g id="edge10" class="edge"><title>Num_of_Delayed_Payment&#45;&gt;Credit_Mix</title>
<path fill="none" stroke="black" d="M670,-260.799C670,-249.163 670,-233.548 670,-220.237"/>
<polygon fill="black" stroke="black" points="673.5,-220.175 670,-210.175 666.5,-220.175 673.5,-220.175"/>
<text text-anchor="middle" x="682.5" y="-231.8" font-family="Times New Roman,serif" font-size="14.00">1.00</text>
</g>
<!-- Changed_Credit_Limit -->
<g id="node12" class="node"><title>Changed_Credit_Limit</title>
<ellipse fill="none" stroke="black" cx="1386" cy="-279" rx="93.6835" ry="18"/>
<text text-anchor="middle" x="1386" y="-275.3" font-family="Times New Roman,serif" font-size="14.00">Changed_Credit_Limit</text>
</g>
<!-- Num_Credit_Inquiries -->
<g id="node13" class="node"><title>Num_Credit_Inquiries</title>
<ellipse fill="none" stroke="black" cx="1042" cy="-18" rx="91.784" ry="18"/>
<text text-anchor="middle" x="1042" y="-14.3" font-family="Times New Roman,serif" font-size="14.00">Num_Credit_Inquiries</text>
</g>
<!-- Credit_Mix&#45;&gt;Age -->
<g id="edge1" class="edge"><title>Credit_Mix&#45;&gt;Age</title>
<path fill="none" stroke="black" d="M617.671,-191.109C511.082,-190.041 262.05,-180.936 63,-123 61.0588,-122.435 59.0913,-121.777 57.1287,-121.055"/>
<polygon fill="black" stroke="black" points="58.0795,-117.66 47.5027,-117.042 55.3858,-124.121 58.0795,-117.66"/>
<text text-anchor="middle" x="205.5" y="-144.8" font-family="Times New Roman,serif" font-size="14.00">1.00</text>
</g>
<!-- Credit_Mix&#45;&gt;Num_Bank_Accounts -->
<g id="edge2" class="edge"><title>Credit_Mix&#45;&gt;Num_Bank_Accounts</title>
<path fill="none" stroke="black" d="M622.421,-184.357C575.088,-177.638 500.424,-166.736 436,-156 368.342,-144.725 291.492,-130.463 236.779,-120.059"/>
<polygon fill="black" stroke="black" points="237.306,-116.597 226.828,-118.163 235.996,-123.473 237.306,-116.597"/>
<text text-anchor="middle" x="448.5" y="-144.8" font-family="Times New Roman,serif" font-size="14.00">1.00</text>
</g>
<!-- Credit_Mix&#45;&gt;Num_Credit_Card -->
<g id="edge3" class="edge"><title>Credit_Mix&#45;&gt;Num_Credit_Card</title>
<path fill="none" stroke="black" d="M626.404,-182.178C594.996,-175.59 551.687,-166.027 514,-156 477.168,-146.201 436.15,-133.522 404.603,-123.385"/>
<polygon fill="black" stroke="black" points="405.303,-119.933 394.711,-120.189 403.151,-126.594 405.303,-119.933"/>
<text text-anchor="middle" x="526.5" y="-144.8" font-family="Times New Roman,serif" font-size="14.00">1.00</text>
</g>
<!-- Credit_Mix&#45;&gt;Interest_Rate -->
<g id="edge4" class="edge"><title>Credit_Mix&#45;&gt;Interest_Rate</title>
<path fill="none" stroke="black" d="M627.807,-181.354C607.666,-175.699 583.717,-167.391 564,-156 551.889,-149.003 540.092,-139.086 530.473,-129.927"/>
<polygon fill="black" stroke="black" points="532.839,-127.345 523.261,-122.814 527.923,-132.328 532.839,-127.345"/>
<text text-anchor="middle" x="576.5" y="-144.8" font-family="Times New Roman,serif" font-size="14.00">1.00</text>
</g>
<!-- Credit_Mix&#45;&gt;Num_of_Loan -->
<g id="edge5" class="edge"><title>Credit_Mix&#45;&gt;Num_of_Loan</title>
<path fill="none" stroke="black" d="M649.916,-174.997C626.672,-154.45 593.778,-117.775 612,-87 627.152,-61.4104 655.725,-44.813 681.627,-34.4274"/>
<polygon fill="black" stroke="black" points="682.903,-37.6869 691.019,-30.8769 680.428,-31.1391 682.903,-37.6869"/>
<text text-anchor="middle" x="624.5" y="-101.3" font-family="Times New Roman,serif" font-size="14.00">1.00</text>
</g>
<!-- Credit_Mix&#45;&gt;Delay_from_due_date -->
<g id="edge7" class="edge"><title>Credit_Mix&#45;&gt;Delay_from_due_date</title>
<path fill="none" stroke="black" d="M683.435,-174.207C693.243,-161.946 706.709,-145.114 717.809,-131.239"/>
<polygon fill="black" stroke="black" points="720.847,-133.044 724.361,-123.049 715.381,-128.672 720.847,-133.044"/>
<text text-anchor="middle" x="720.5" y="-144.8" font-family="Times New Roman,serif" font-size="14.00">1.00</text>
</g>
<!-- Credit_Mix&#45;&gt;Num_Credit_Inquiries -->
<g id="edge8" class="edge"><title>Credit_Mix&#45;&gt;Num_Credit_Inquiries</title>
<path fill="none" stroke="black" d="M721.603,-188.91C858.631,-182.831 1223.62,-162.999 1259,-123 1303.86,-72.2827 1204.95,-44.0994 1126.32,-30.2455"/>
<polygon fill="black" stroke="black" points="1126.8,-26.7773 1116.36,-28.5459 1125.63,-33.6776 1126.8,-26.7773"/>
<text text-anchor="middle" x="1282.5" y="-101.3" font-family="Times New Roman,serif" font-size="14.00">1.00</text>
</g>
<!-- Credit_History_Age -->
<g id="node17" class="node"><title>Credit_History_Age</title>
<ellipse fill="none" stroke="black" cx="1166" cy="-105" rx="84.485" ry="18"/>
<text text-anchor="middle" x="1166" y="-101.3" font-family="Times New Roman,serif" font-size="14.00">Credit_History_Age</text>
</g>
<!-- Credit_Mix&#45;&gt;Credit_History_Age -->
<g id="edge11" class="edge"><title>Credit_Mix&#45;&gt;Credit_History_Age</title>
<path fill="none" stroke="black" d="M715.968,-183.453C790.828,-171.116 943.716,-145.722 1073,-123 1080,-121.769 1087.3,-120.469 1094.58,-119.157"/>
<polygon fill="black" stroke="black" points="1095.27,-122.589 1104.49,-117.366 1094.03,-115.701 1095.27,-122.589"/>
<text text-anchor="middle" x="974.5" y="-144.8" font-family="Times New Roman,serif" font-size="14.00">1.00</text>
</g>
<!-- Payment_of_Min_Amount -->
<g id="node18" class="node"><title>Payment_of_Min_Amount</title>
<ellipse fill="none" stroke="black" cx="956" cy="-105" rx="107.781" ry="18"/>
<text text-anchor="middle" x="956" y="-101.3" font-family="Times New Roman,serif" font-size="14.00">Payment_of_Min_Amount</text>
</g>
<!-- Credit_Mix&#45;&gt;Payment_of_Min_Amount -->
<g id="edge12" class="edge"><title>Credit_Mix&#45;&gt;Payment_of_Min_Amount</title>
<path fill="none" stroke="black" d="M708.274,-179.625C756.305,-165.35 839.229,-140.705 895.792,-123.894"/>
<polygon fill="black" stroke="black" points="897.093,-127.159 905.681,-120.955 895.099,-120.449 897.093,-127.159"/>
<text text-anchor="middle" x="842.5" y="-144.8" font-family="Times New Roman,serif" font-size="14.00">1.00</text>
</g>
<!-- Payment_Behaviour -->
<g id="node21" class="node"><title>Payment_Behaviour</title>
<ellipse fill="none" stroke="black" cx="1412" cy="-105" rx="83.3857" ry="18"/>
<text text-anchor="middle" x="1412" y="-101.3" font-family="Times New Roman,serif" font-size="14.00">Payment_Behaviour</text>
</g>
<!-- Credit_Mix&#45;&gt;Payment_Behaviour -->
<g id="edge13" class="edge"><title>Credit_Mix&#45;&gt;Payment_Behaviour</title>
<path fill="none" stroke="black" d="M722.055,-190.534C852.532,-188.978 1190.87,-182.438 1300,-156 1325.96,-149.711 1353.37,-137.58 1374.58,-126.843"/>
<polygon fill="black" stroke="black" points="1376.29,-129.898 1383.56,-122.191 1373.07,-123.682 1376.29,-129.898"/>
<text text-anchor="middle" x="1353.5" y="-144.8" font-family="Times New Roman,serif" font-size="14.00">1.00</text>
</g>
<!-- Outstanding_Debt -->
<g id="node15" class="node"><title>Outstanding_Debt</title>
<ellipse fill="none" stroke="black" cx="1575" cy="-279" rx="77.1866" ry="18"/>
<text text-anchor="middle" x="1575" y="-275.3" font-family="Times New Roman,serif" font-size="14.00">Outstanding_Debt</text>
</g>
<!-- Credit_Utilization_Ratio -->
<g id="node16" class="node"><title>Credit_Utilization_Ratio</title>
<ellipse fill="none" stroke="black" cx="1769" cy="-279" rx="98.5829" ry="18"/>
<text text-anchor="middle" x="1769" y="-275.3" font-family="Times New Roman,serif" font-size="14.00">Credit_Utilization_Ratio</text>
</g>
<!-- Payment_of_Min_Amount&#45;&gt;Num_of_Loan -->
<g id="edge6" class="edge"><title>Payment_of_Min_Amount&#45;&gt;Num_of_Loan</title>
<path fill="none" stroke="black" d="M915.392,-88.3106C877.622,-73.7175 821.402,-51.9963 781.992,-36.7697"/>
<polygon fill="black" stroke="black" points="782.946,-33.3861 772.356,-33.0468 780.423,-39.9157 782.946,-33.3861"/>
<text text-anchor="middle" x="871.5" y="-57.8" font-family="Times New Roman,serif" font-size="14.00">1.00</text>
</g>
<!-- Payment_of_Min_Amount&#45;&gt;Num_Credit_Inquiries -->
<g id="edge9" class="edge"><title>Payment_of_Min_Amount&#45;&gt;Num_Credit_Inquiries</title>
<path fill="none" stroke="black" d="M972.991,-87.2067C985.83,-74.517 1003.62,-56.9297 1017.93,-42.7925"/>
<polygon fill="black" stroke="black" points="1020.39,-45.2773 1025.04,-35.7584 1015.47,-40.2987 1020.39,-45.2773"/>
<text text-anchor="middle" x="1016.5" y="-57.8" font-family="Times New Roman,serif" font-size="14.00">1.00</text>
</g>
<!-- Total_EMI_per_month -->
<g id="node19" class="node"><title>Total_EMI_per_month</title>
<ellipse fill="none" stroke="black" cx="1981" cy="-279" rx="94.7833" ry="18"/>
<text text-anchor="middle" x="1981" y="-275.3" font-family="Times New Roman,serif" font-size="14.00">Total_EMI_per_month</text>
</g>
<!-- Amount_invested_monthly -->
<g id="node20" class="node"><title>Amount_invested_monthly</title>
<ellipse fill="none" stroke="black" cx="2202" cy="-279" rx="108.581" ry="18"/>
<text text-anchor="middle" x="2202" y="-275.3" font-family="Times New Roman,serif" font-size="14.00">Amount_invested_monthly</text>
</g>
<!-- Monthly_Balance -->
<g id="node22" class="node"><title>Monthly_Balance</title>
<ellipse fill="none" stroke="black" cx="2403" cy="-279" rx="74.187" ry="18"/>
<text text-anchor="middle" x="2403" y="-275.3" font-family="Times New Roman,serif" font-size="14.00">Monthly_Balance</text>
</g>
</g>
</svg>
